<?xml version="1.0" encoding="UTF-8" standalone="no" ?>
<!DOCTYPE svg PUBLIC "-//W3C//DTD SVG 1.1//EN" "http://www.w3.org/Graphics/SVG/1.1/DTD/svg11.dtd">
<svg xmlns="http://www.w3.org/2000/svg" xmlns:xlink="http://www.w3.org/1999/xlink" version="1.1" width="1080" height="1080" viewBox="0 0 1080 1080" xml:space="preserve">
<desc>Created with Fabric.js 5.2.4</desc>
<defs>
</defs>
<g transform="matrix(1 0 0 1 540 540)" id="1340887e-083c-43d7-b2c2-1a1da7e03a40"  >
<rect style="stroke: none; stroke-width: 1; stroke-dasharray: none; stroke-linecap: butt; stroke-dashoffset: 0; stroke-linejoin: miter; stroke-miterlimit: 4; fill: rgb(255,255,255); fill-rule: nonzero; opacity: 1; visibility: hidden;" vector-effect="non-scaling-stroke"  x="-540" y="-540" rx="0" ry="0" width="1080" height="1080" />
</g>
<g transform="matrix(1 0 0 1 540 540)" id="d1261d79-7932-4abc-bd61-a134f10a4e24"  >
</g>
<g transform="matrix(1 0 0 1 905.15 544.39)"  >
<path style="stroke: none; stroke-width: 1; stroke-dasharray: none; stroke-linecap: butt; stroke-dashoffset: 0; stroke-linejoin: miter; stroke-miterlimit: 4; fill: rgb(255,255,255); fill-rule: nonzero; opacity: 1;" vector-effect="non-scaling-stroke"  transform=" translate(-765.15, -104.4)" d="M 772.47 130 L 772.47 92.58 L 786.9200000000001 92.58 L 786.9200000000001 78.51 L 772.47 78.51 L 772.47 54.1 L 755 54.1 L 754.69 78.51 L 743 78.51 L 743 92.58 L 754.72 92.58 L 754.72 133.48 C 754.72 140.39999999999998 755.78 145.67 758.9300000000001 149.28 C 762.0800000000002 152.89000000000001 766.9300000000001 154.69 774.2600000000001 154.69 C 778.6633145247737 154.6709651836888 783.0470943634696 154.10325729653198 787.31 153 L 787.31 139 C 785.0002732538426 139.85438427338022 782.5623724189957 140.31085669044586 780.0999999999999 140.35 C 774.68 140.4 772.47 137.7 772.47 130 Z" stroke-linecap="round" />
</g>
<g transform="matrix(4.96 0 0 4.94 538.68 539.31)"  >
<path style="stroke: none; stroke-width: 1; stroke-dasharray: none; stroke-linecap: butt; stroke-dashoffset: 0; stroke-linejoin: miter; stroke-miterlimit: 4; fill: rgb(255,255,255); fill-rule: nonzero; opacity: 1;" vector-effect="non-scaling-stroke"  transform=" translate(-100.21, -100)" d="M 100.47 0 C 20.47 -0.21 0.42 19.74 0.21 99.74 C 0 179.73999999999998 19.94 199.79 99.94 200 C 179.94 200.21 200 180.26 200.21 100.26 C 200.42000000000002 20.26000000000002 180.47 0.21 100.47 0 Z M 83.8 154.69 C 62.65853977647723 154.69 45.519999999999996 137.55146022352278 45.519999999999996 116.41 C 45.519999999999996 95.26853977647723 62.65853977647723 78.13 83.8 78.13 C 104.94146022352277 78.13 122.07999999999998 95.26853977647721 122.08 116.41 C 122.05245461223744 137.54004003297425 104.93004003297423 154.66245461223744 83.8 154.69 Z M 153.32999999999998 153.12 L 134.58 153.12 L 134.58 65.63 L 47.08 65.63 L 47.08 46.88 L 153.33 46.88 Z" stroke-linecap="round" />
</g>
<g transform="matrix(1 0 0 1 223.8 556.41)"  >
<path style="stroke: none; stroke-width: 1; stroke-dasharray: none; stroke-linecap: butt; stroke-dashoffset: 0; stroke-linejoin: miter; stroke-miterlimit: 4; fill: rgb(255,255,255); fill-rule: nonzero; opacity: 1;" vector-effect="non-scaling-stroke"  transform=" translate(-83.8, -116.41)" d="M 83.8 96.88 C 73.0138788358046 96.88 64.27 105.6238788358046 64.27 116.41 C 64.27 127.19612116419539 73.0138788358046 135.94 83.8 135.94 C 94.58612116419539 135.94 103.33 127.19612116419539 103.33 116.41 C 103.31897591003447 105.62844846489739 94.58155153510262 96.89102408996553 83.80000000000001 96.88 Z" stroke-linecap="round" />
</g>
<g transform="matrix(1 0 0 1 930.96 502.93)"  >
<path style="stroke: none; stroke-width: 1; stroke-dasharray: none; stroke-linecap: butt; stroke-dashoffset: 0; stroke-linejoin: miter; stroke-miterlimit: 4; fill: rgb(255,255,255); fill-rule: nonzero; opacity: 1;" vector-effect="non-scaling-stroke"  transform=" translate(-790.96, -62.93)" d="M 791 54.1 C 787.4250029171824 54.08380505674698 784.1930084763524 56.224867107801174 782.8136800709293 59.52309687061862 C 781.4343516655064 62.82132663343607 782.179903664193 66.62580911982951 784.7020890074994 69.15947198460704 C 787.2242743508057 71.69313484938456 791.0253326154121 72.45595254784659 794.3297909088418 71.09161321860121 C 797.6342492022715 69.72727388935583 799.789963318174 66.50503376445539 799.79 62.92999999999999 C 799.8741854400167 60.570338031956275 798.9765214403349 58.28133725584999 797.3107214283075 56.607956811458386 C 795.64492141628 54.93457636706678 793.3600198715757 54.02652893419349 791 54.1 Z M 791 70.35 C 789.0384870422456 70.39127759945164 787.1480233279866 69.61561754144375 785.7807714715392 68.20854281539113 C 784.4135196150918 66.80146808933848 783.6924396298402 64.88952006823843 783.79 62.92999999999999 C 783.6917667311503 60.29549784873732 785.0412361183776 57.81796758327326 787.3078156487225 56.471539496542185 C 789.5743951790673 55.12511140981111 792.3956048209326 55.12511140981111 794.6621843512775 56.471539496542185 C 796.9287638816223 57.81796758327326 798.2782332688496 60.29549784873733 798.18 62.92999999999999 C 798.2771385668204 64.88421372600308 797.5600729066404 66.79130110691419 796.1994560601814 68.19739818222409 C 794.8388392137225 69.603495257534 792.9563506117717 70.38285531743236 791 70.35 Z" stroke-linecap="round" />
</g>
<g transform="matrix(1 0 0 1 931.4 502.85)"  >
<path style="stroke: none; stroke-width: 1; stroke-dasharray: none; stroke-linecap: butt; stroke-dashoffset: 0; stroke-linejoin: miter; stroke-miterlimit: 4; fill: rgb(255,255,255); fill-rule: nonzero; opacity: 1;" vector-effect="non-scaling-stroke"  transform=" translate(-791.4, -62.85)" d="M 795.14 61.08 C 795.14 59.129999999999995 793.86 58.019999999999996 791.56 58.019999999999996 L 787.3699999999999 58.019999999999996 L 787.3699999999999 67.67 L 789.7899999999998 67.67 L 789.7899999999998 64 L 790.8499999999998 64 L 792.7699999999998 67.68 L 795.4299999999997 67.68 L 793.2199999999997 63.68000000000001 C 794.3633373170557 63.331574236466274 795.1433962661376 62.27524440958457 795.14 61.08 Z M 791.14 62.33 L 789.8199999999999 62.33 L 789.8199999999999 59.8 L 791.14 59.8 C 792.14 59.8 792.68 60.22 792.68 61.08 C 792.68 61.94 792.09 62.33 791.11 62.33 Z" stroke-linecap="round" />
</g>
</svg>